<svg id="Layer_1" data-name="Layer 1" xmlns="http://www.w3.org/2000/svg" viewBox="0 0 1024 1024">
  <defs>
    <style>
      .cls-1 {
        fill: #fff;
        fill-rule: evenodd;
      }
    </style>
  </defs>
  <path class="cls-1" d="M280,288.83h291.7c24.64,0,45.16,20.39,45.16,44.84s-20.52,44.84-45.16,44.84H280Zm0,354.63H637.44c24.64,0,45.2,20.37,45.2,44.85s-20.56,44.81-45.2,44.81H280ZM164,916.57V106.42H451.53c89.37,0,164.33,19.35,227,59.1,61.62,38.74,108.85,89.69,139.67,151.83S865.43,444.73,865.43,512c0,68.28-15.4,133.49-47.24,194.65-30.82,62.14-78.05,112.08-139.67,151.83-61.64,38.71-137.62,59.1-227,59.1H217.39C202,916.57,165,916.57,164,916.57ZM280,466.15H482.35c24.67,0,45.19,20.36,45.19,44.84S507,555.83,482.35,555.83H280Z"/>
</svg>
