<?xml version="1.0" standalone="no"?><!-- Generator: Gravit.io --><svg xmlns="http://www.w3.org/2000/svg" xmlns:xlink="http://www.w3.org/1999/xlink" style="isolation:isolate" viewBox="0 0 168 32" width="168" height="32"><defs><clipPath id="_clipPath_gLbtdvHdkestWbz2idKW6SOAsLvlCx0M"><rect width="168" height="32"/></clipPath></defs><g clip-path="url(#_clipPath_gLbtdvHdkestWbz2idKW6SOAsLvlCx0M)"><g><g><path d=" M 6.367 8.505 L 16.087 8.505 C 16.908 8.505 17.592 9.19 17.592 10.011 L 17.592 10.011 C 17.592 10.832 16.908 11.517 16.087 11.517 L 6.367 11.517 L 6.367 8.505 L 6.367 8.505 L 6.367 8.505 Z  M 6.367 20.415 L 18.277 20.415 C 19.098 20.415 19.783 21.099 19.783 21.921 L 19.783 21.921 C 19.783 22.742 19.098 23.426 18.277 23.426 L 6.367 23.426 L 6.367 20.415 L 6.367 20.415 Z  M 2.5 29.587 C 2.5 29.587 2.5 2.379 2.5 2.379 L 12.082 2.379 C 15.06 2.379 17.558 3.029 19.646 4.364 C 21.699 5.665 23.273 7.376 24.3 9.463 C 25.327 11.551 25.874 13.741 25.874 16 C 25.874 18.293 25.361 20.483 24.3 22.537 C 23.273 24.624 21.699 26.301 19.646 27.636 C 17.592 28.936 15.06 29.621 12.082 29.621 L 4.28 29.621 C 3.766 29.587 2.534 29.587 2.5 29.587 L 2.5 29.587 L 2.5 29.587 Z  M 6.367 14.46 L 13.109 14.46 C 13.931 14.46 14.615 15.144 14.615 15.966 L 14.615 15.966 C 14.615 16.787 13.931 17.472 13.109 17.472 L 6.367 17.472 L 6.367 14.46 Z " fill-rule="evenodd" fill="rgb(255,255,255)"/></g><g><g><path d=" M 44.294 6.513 L 44.294 23.302 L 42.455 23.302 L 42.376 21.15 C 41.907 21.932 41.281 22.519 40.498 22.95 C 39.715 23.341 38.854 23.576 37.954 23.576 C 36.193 23.576 34.784 23.028 33.649 21.932 C 32.515 20.837 31.967 19.35 31.967 17.432 C 31.967 15.514 32.515 13.988 33.649 12.932 C 34.784 11.836 36.193 11.327 37.954 11.327 C 38.854 11.327 39.715 11.523 40.537 11.953 C 41.359 12.384 41.985 12.932 42.376 13.714 L 42.376 6.513 L 44.294 6.513 L 44.294 6.513 Z  M 38.072 13.049 C 36.858 13.049 35.88 13.44 35.097 14.184 C 34.315 14.927 33.923 15.984 33.923 17.354 C 33.923 18.684 34.315 19.741 35.097 20.484 C 35.88 21.267 36.898 21.619 38.072 21.619 C 39.285 21.619 40.263 21.228 41.085 20.406 C 41.868 19.624 42.298 18.567 42.298 17.275 C 42.298 16.023 41.907 15.006 41.085 14.223 C 40.224 13.479 39.246 13.049 38.072 13.049 L 38.072 13.049 Z " fill="rgb(255,255,255)"/><path d=" M 58.461 21.424 C 57.874 22.128 57.13 22.637 56.191 22.989 C 55.252 23.341 54.312 23.537 53.334 23.537 C 51.495 23.537 49.969 22.989 48.834 21.854 C 47.699 20.719 47.112 19.232 47.112 17.354 C 47.112 15.554 47.699 14.106 48.834 12.932 C 49.969 11.757 51.456 11.21 53.256 11.21 C 55.173 11.21 56.7 11.797 57.835 13.01 C 58.969 14.223 59.4 15.906 59.204 18.176 L 49.147 18.176 C 49.264 19.232 49.695 20.093 50.516 20.758 C 51.299 21.424 52.277 21.737 53.452 21.737 C 54.156 21.737 54.86 21.619 55.565 21.345 C 56.269 21.071 56.817 20.719 57.208 20.25 L 58.461 21.424 L 58.461 21.424 Z  M 57.326 16.532 C 57.287 15.397 56.895 14.536 56.191 13.91 C 55.487 13.284 54.508 12.971 53.334 12.971 C 52.277 12.971 51.338 13.284 50.556 13.91 C 49.773 14.536 49.303 15.397 49.147 16.493 L 57.326 16.532 L 57.326 16.532 Z " fill="rgb(255,255,255)"/><path d=" M 72.51 21.424 C 71.923 22.128 71.179 22.637 70.24 22.989 C 69.301 23.341 68.362 23.537 67.383 23.537 C 65.544 23.537 64.018 22.989 62.883 21.854 C 61.748 20.719 61.161 19.232 61.161 17.354 C 61.161 15.554 61.748 14.106 62.883 12.932 C 64.018 11.757 65.505 11.21 67.305 11.21 C 69.223 11.21 70.749 11.797 71.884 13.01 C 73.019 14.223 73.449 15.906 73.254 18.176 L 63.196 18.176 C 63.313 19.232 63.744 20.093 64.566 20.758 C 65.348 21.424 66.327 21.737 67.501 21.737 C 68.205 21.737 68.91 21.619 69.614 21.345 C 70.318 21.071 70.866 20.719 71.258 20.25 L 72.51 21.424 L 72.51 21.424 Z  M 71.375 16.532 C 71.336 15.397 70.945 14.536 70.24 13.91 C 69.536 13.284 68.557 12.971 67.383 12.971 C 66.327 12.971 65.388 13.284 64.605 13.91 C 63.822 14.536 63.353 15.397 63.196 16.493 L 71.375 16.532 L 71.375 16.532 Z " fill="rgb(255,255,255)"/><path d=" M 75.954 11.523 L 77.832 11.523 L 77.911 13.792 C 78.38 13.01 79.006 12.384 79.828 11.953 C 80.65 11.523 81.511 11.288 82.45 11.288 C 84.172 11.327 85.581 11.914 86.677 13.01 C 87.772 14.145 88.32 15.593 88.32 17.393 C 88.32 19.232 87.772 20.719 86.638 21.854 C 85.503 22.989 84.094 23.537 82.294 23.537 C 81.394 23.537 80.533 23.341 79.711 22.95 C 78.889 22.559 78.263 21.932 77.832 21.15 L 77.832 28.859 L 75.915 28.859 L 75.915 11.523 L 75.954 11.523 Z  M 85.229 20.563 C 86.011 19.78 86.403 18.763 86.403 17.432 C 86.403 16.141 86.011 15.084 85.229 14.34 C 84.446 13.597 83.468 13.205 82.215 13.205 C 80.963 13.205 79.985 13.597 79.202 14.419 C 78.419 15.201 78.067 16.219 78.067 17.471 C 78.067 18.684 78.458 19.702 79.241 20.484 C 80.024 21.306 81.002 21.698 82.215 21.737 C 83.468 21.737 84.446 21.345 85.229 20.563 Z " fill="rgb(255,255,255)"/><path d=" M 98.848 14.106 C 97.987 13.323 96.891 12.971 95.521 12.971 C 94.66 12.971 93.956 13.088 93.408 13.401 C 92.86 13.714 92.586 14.145 92.586 14.693 C 92.586 15.632 93.604 16.219 95.521 16.454 C 96.069 16.532 96.539 16.571 96.891 16.649 C 97.243 16.728 97.674 16.845 98.182 17.002 C 98.691 17.158 99.082 17.354 99.395 17.628 C 99.708 17.862 99.943 18.215 100.178 18.606 C 100.413 19.036 100.491 19.506 100.491 20.093 C 100.491 21.228 99.982 22.089 99.043 22.715 C 98.104 23.341 96.93 23.654 95.521 23.654 C 93.173 23.654 91.412 22.911 90.238 21.424 L 91.373 20.054 C 92.351 21.267 93.76 21.893 95.599 21.893 C 96.382 21.893 97.086 21.737 97.674 21.463 C 98.261 21.189 98.574 20.719 98.613 20.054 C 98.613 19.467 98.378 19.036 97.791 18.763 C 97.204 18.489 96.46 18.293 95.404 18.176 C 94.738 18.097 94.151 17.98 93.682 17.862 C 93.212 17.745 92.703 17.549 92.234 17.315 C 91.725 17.08 91.373 16.728 91.099 16.336 C 90.825 15.906 90.708 15.397 90.708 14.771 C 90.708 13.988 90.942 13.284 91.451 12.775 C 91.96 12.227 92.547 11.836 93.251 11.64 C 93.956 11.405 94.699 11.327 95.521 11.327 C 97.36 11.327 98.848 11.836 100.022 12.892 L 98.848 14.106 L 98.848 14.106 Z " fill="rgb(255,255,255)"/><path d=" M 104.17 12.932 C 105.344 11.757 106.792 11.21 108.553 11.21 C 110.353 11.21 111.84 11.797 112.975 12.932 C 114.11 14.066 114.697 15.593 114.697 17.432 C 114.697 19.232 114.11 20.68 112.975 21.815 C 111.801 22.95 110.353 23.537 108.553 23.537 C 106.792 23.537 105.305 22.95 104.17 21.815 C 102.996 20.68 102.448 19.193 102.448 17.432 C 102.448 15.593 102.996 14.106 104.17 12.932 Z  M 111.605 14.223 C 110.823 13.401 109.805 12.971 108.592 12.971 C 107.379 12.971 106.361 13.362 105.579 14.184 C 104.796 15.006 104.405 16.062 104.405 17.354 C 104.405 18.606 104.796 19.624 105.579 20.406 C 106.361 21.189 107.379 21.619 108.592 21.619 C 109.805 21.619 110.823 21.228 111.605 20.406 C 112.388 19.624 112.819 18.567 112.819 17.354 C 112.779 16.101 112.388 15.045 111.605 14.223 Z " fill="rgb(255,255,255)"/><path d=" M 126.75 23.302 L 126.672 21.424 C 125.655 22.793 124.285 23.459 122.563 23.498 C 121.037 23.498 119.784 22.989 118.845 22.011 C 117.906 21.032 117.436 19.702 117.436 17.98 L 117.436 11.444 L 119.393 11.444 L 119.393 17.98 C 119.393 19.115 119.706 20.015 120.332 20.68 C 120.959 21.345 121.859 21.659 122.954 21.659 C 124.011 21.659 124.911 21.267 125.576 20.524 C 126.242 19.78 126.594 18.88 126.594 17.784 L 126.594 11.444 L 128.551 11.444 L 128.551 23.302 L 126.75 23.302 L 126.75 23.302 Z " fill="rgb(255,255,255)"/><path d=" M 133.99 11.444 L 134.147 13.205 C 134.851 11.914 136.064 11.249 137.786 11.249 C 138.843 11.21 139.743 11.523 140.526 12.149 L 139.626 13.832 C 139 13.401 138.334 13.166 137.552 13.166 C 136.573 13.166 135.751 13.519 135.086 14.145 C 134.421 14.81 134.069 15.632 134.069 16.688 L 134.069 23.263 L 132.112 23.263 L 132.112 11.444 L 133.99 11.444 L 133.99 11.444 Z " fill="rgb(255,255,255)"/><path d=" M 151.875 21.698 C 150.662 22.911 149.174 23.537 147.453 23.537 C 145.692 23.537 144.244 22.989 143.03 21.893 C 141.856 20.798 141.269 19.31 141.269 17.393 C 141.269 15.475 141.856 13.988 143.03 12.892 C 144.204 11.797 145.692 11.249 147.453 11.249 C 149.096 11.249 150.544 11.836 151.757 13.01 L 150.505 14.301 C 149.683 13.519 148.705 13.088 147.492 13.088 C 146.279 13.088 145.261 13.479 144.478 14.262 C 143.657 15.045 143.265 16.062 143.265 17.354 C 143.265 18.684 143.657 19.741 144.478 20.484 C 145.3 21.228 146.279 21.619 147.492 21.619 C 148.744 21.619 149.762 21.189 150.583 20.367 L 151.875 21.698 L 151.875 21.698 Z " fill="rgb(255,255,255)"/><path d=" M 164.711 21.424 C 164.124 22.128 163.38 22.637 162.441 22.989 C 161.502 23.341 160.563 23.537 159.584 23.537 C 157.745 23.537 156.219 22.989 155.084 21.854 C 153.949 20.719 153.362 19.232 153.362 17.354 C 153.362 15.554 153.949 14.106 155.084 12.932 C 156.219 11.757 157.706 11.21 159.506 11.21 C 161.424 11.21 162.95 11.797 164.085 13.01 C 165.22 14.223 165.65 15.906 165.454 18.176 L 155.397 18.176 C 155.514 19.232 155.945 20.093 156.767 20.758 C 157.549 21.424 158.528 21.737 159.702 21.737 C 160.406 21.737 161.111 21.619 161.815 21.345 C 162.519 21.071 163.067 20.719 163.459 20.25 L 164.711 21.424 L 164.711 21.424 Z  M 163.576 16.532 C 163.537 15.397 163.146 14.536 162.441 13.91 C 161.737 13.284 160.758 12.971 159.584 12.971 C 158.528 12.971 157.588 13.284 156.806 13.91 C 156.023 14.536 155.553 15.397 155.397 16.493 L 163.576 16.532 L 163.576 16.532 Z " fill="rgb(255,255,255)"/></g></g></g></g></svg>