<?xml version="1.0" standalone="no"?><!-- Generator: Gravit.io --><svg xmlns="http://www.w3.org/2000/svg" xmlns:xlink="http://www.w3.org/1999/xlink" style="isolation:isolate" viewBox="0 0 64 64" width="64" height="64"><defs><clipPath id="_clipPath_it56fBROFbIlhZdA9PHG8JovdjUG3Xwq"><rect width="64" height="64"/></clipPath></defs><g clip-path="url(#_clipPath_it56fBROFbIlhZdA9PHG8JovdjUG3Xwq)"><path d=" M 10 57.575 C 10 57.575 10 6.36 10 6.36 L 28.038 6.36 C 33.643 6.36 38.346 7.584 42.275 10.097 C 46.141 12.545 49.104 15.766 51.037 19.695 C 52.969 23.625 54 27.748 54 32 C 54 36.316 53.034 40.439 51.037 44.305 C 49.104 48.234 46.141 51.391 42.275 53.903 C 38.41 56.351 33.643 57.64 28.038 57.64 L 13.35 57.64 C 12.384 57.575 10.064 57.575 10 57.575 Z " fill="rgb(39,44,53)"/><path d=" M 17.28 17.892 L 35.575 17.892 C 37.122 17.892 38.41 19.18 38.41 20.726 L 38.41 20.726 C 38.41 22.272 37.122 23.561 35.575 23.561 L 17.28 23.561 L 17.28 17.892 Z " fill="rgb(61,220,151)"/><path d=" M 17.28 40.31 L 39.698 40.31 C 41.245 40.31 42.533 41.599 42.533 43.145 L 42.533 43.145 C 42.533 44.691 41.245 45.98 39.698 45.98 L 17.28 45.98 L 17.28 40.31 Z " fill="rgb(241,42,31)"/><path d=" M 17.28 29.101 L 29.971 29.101 C 31.517 29.101 32.805 30.389 32.805 31.936 L 32.805 31.936 C 32.805 33.482 31.517 34.77 29.971 34.77 L 17.28 34.77 L 17.28 29.101 Z " fill="rgb(255,180,0)"/></g></svg>