<?xml version="1.0" standalone="no"?><!-- Generator: Gravit.io --><svg xmlns="http://www.w3.org/2000/svg" xmlns:xlink="http://www.w3.org/1999/xlink" style="isolation:isolate" viewBox="0 0 500 100" width="500" height="100"><defs><clipPath id="_clipPath_B5Lt5FtGMK7g84pbY9EZs4cob5tB5tDE"><rect width="500" height="100"/></clipPath></defs><g clip-path="url(#_clipPath_B5Lt5FtGMK7g84pbY9EZs4cob5tB5tDE)"><g><g><path d=" M 13.5 89.7 C 13.5 89.7 13.5 10.2 13.5 10.2 L 41.5 10.2 C 50.2 10.2 57.5 12.1 63.6 16 C 69.6 19.8 74.2 24.8 77.2 30.9 C 80.2 37 81.8 43.4 81.8 50 C 81.8 56.7 80.3 63.1 77.2 69.1 C 74.2 75.2 69.6 80.1 63.6 84 C 57.6 87.8 50.2 89.8 41.5 89.8 L 18.7 89.8 C 17.2 89.7 13.6 89.7 13.5 89.7 Z " fill="rgb(39,44,53)"/><g><path d=" M 24.8 28.1 L 53.2 28.1 C 55.6 28.1 57.6 30.1 57.6 32.5 L 57.6 32.5 C 57.6 34.9 55.6 36.9 53.2 36.9 L 24.8 36.9 L 24.8 28.1 Z " fill="rgb(61,220,151)"/><path d=" M 24.8 62.9 L 59.6 62.9 C 62 62.9 64 64.9 64 67.3 L 64 67.3 C 64 69.7 62 71.7 59.6 71.7 L 24.8 71.7 L 24.8 62.9 Z " fill="rgb(241,42,31)"/><path d=" M 24.8 45.5 L 44.5 45.5 C 46.9 45.5 48.9 47.5 48.9 49.9 L 48.9 49.9 C 48.9 52.3 46.9 54.3 44.5 54.3 L 24.8 54.3 L 24.8 45.5 Z " fill="rgb(255,180,0)"/></g></g><g><g><path d=" M 131.763 24.4 L 131.763 73.536 L 126.38 73.536 L 126.151 67.236 C 124.777 69.527 122.944 71.245 120.654 72.505 C 118.363 73.65 115.843 74.338 113.209 74.338 C 108.055 74.338 103.931 72.734 100.61 69.527 C 97.288 66.32 95.685 61.968 95.685 56.356 C 95.685 50.743 97.288 46.276 100.61 43.184 C 103.931 39.977 108.055 38.488 113.209 38.488 C 115.843 38.488 118.363 39.061 120.768 40.32 C 123.173 41.58 125.006 43.184 126.151 45.475 L 126.151 24.4 L 131.763 24.4 L 131.763 24.4 Z  M 113.552 43.527 C 110.002 43.527 107.138 44.673 104.848 46.849 C 102.557 49.025 101.411 52.118 101.411 56.126 C 101.411 60.021 102.557 63.113 104.848 65.289 C 107.138 67.58 110.116 68.611 113.552 68.611 C 117.103 68.611 119.966 67.466 122.372 65.06 C 124.662 62.77 125.922 59.677 125.922 55.897 C 125.922 52.232 124.777 49.254 122.372 46.964 C 119.852 44.787 116.988 43.527 113.552 43.527 L 113.552 43.527 Z " fill="rgb(39,44,53)"/><path d=" M 173.225 68.038 C 171.507 70.1 169.331 71.589 166.582 72.62 C 163.834 73.65 161.085 74.223 158.221 74.223 C 152.838 74.223 148.371 72.62 145.05 69.298 C 141.728 65.977 140.01 61.624 140.01 56.126 C 140.01 50.858 141.728 46.62 145.05 43.184 C 148.371 39.748 152.724 38.144 157.992 38.144 C 163.604 38.144 168.071 39.862 171.393 43.413 C 174.714 46.964 175.974 51.889 175.402 58.532 L 145.966 58.532 C 146.31 61.624 147.569 64.144 149.975 66.091 C 152.265 68.038 155.129 68.954 158.565 68.954 C 160.627 68.954 162.688 68.611 164.75 67.809 C 166.811 67.007 168.415 65.977 169.56 64.602 L 173.225 68.038 L 173.225 68.038 Z  M 169.904 53.721 C 169.789 50.4 168.644 47.88 166.582 46.047 C 164.521 44.215 161.657 43.298 158.221 43.298 C 155.129 43.298 152.38 44.215 150.089 46.047 C 147.799 47.88 146.424 50.4 145.966 53.607 L 169.904 53.721 L 169.904 53.721 Z " fill="rgb(39,44,53)"/><path d=" M 214.344 68.038 C 212.626 70.1 210.45 71.589 207.701 72.62 C 204.952 73.65 202.203 74.223 199.34 74.223 C 193.956 74.223 189.49 72.62 186.168 69.298 C 182.846 65.977 181.128 61.624 181.128 56.126 C 181.128 50.858 182.846 46.62 186.168 43.184 C 189.49 39.748 193.842 38.144 199.111 38.144 C 204.723 38.144 209.19 39.862 212.511 43.413 C 215.833 46.964 217.093 51.889 216.52 58.532 L 187.084 58.532 C 187.428 61.624 188.688 64.144 191.093 66.091 C 193.384 68.038 196.247 68.954 199.683 68.954 C 201.745 68.954 203.807 68.611 205.868 67.809 C 207.93 67.007 209.533 65.977 210.679 64.602 L 214.344 68.038 L 214.344 68.038 Z  M 211.022 53.721 C 210.908 50.4 209.762 47.88 207.701 46.047 C 205.639 44.215 202.776 43.298 199.34 43.298 C 196.247 43.298 193.498 44.215 191.208 46.047 C 188.917 47.88 187.542 50.4 187.084 53.607 L 211.022 53.721 L 211.022 53.721 Z " fill="rgb(39,44,53)"/><path d=" M 224.423 39.061 L 229.921 39.061 L 230.15 45.704 C 231.524 43.413 233.357 41.58 235.762 40.32 C 238.167 39.061 240.687 38.373 243.436 38.373 C 248.476 38.488 252.599 40.206 255.806 43.413 C 259.013 46.735 260.616 50.972 260.616 56.241 C 260.616 61.624 259.013 65.977 255.691 69.298 C 252.37 72.62 248.246 74.223 242.978 74.223 C 240.344 74.223 237.824 73.65 235.418 72.505 C 233.013 71.36 231.181 69.527 229.921 67.236 L 229.921 89.8 L 224.309 89.8 L 224.309 39.061 L 224.423 39.061 Z  M 251.568 65.518 C 253.859 63.228 255.004 60.25 255.004 56.356 C 255.004 52.576 253.859 49.483 251.568 47.307 C 249.277 45.131 246.414 43.986 242.749 43.986 C 239.198 43.986 236.22 45.131 233.93 47.536 C 231.639 49.827 230.608 52.805 230.608 56.47 C 230.608 60.021 231.753 62.999 234.044 65.289 C 236.335 67.695 239.198 68.84 242.749 68.954 C 246.414 68.954 249.277 67.809 251.568 65.518 Z " fill="rgb(39,44,53)"/><path d=" M 291.427 46.62 C 288.907 44.329 285.7 43.298 281.691 43.298 C 279.171 43.298 277.11 43.642 275.506 44.558 C 273.903 45.475 273.101 46.735 273.101 48.338 C 273.101 51.087 276.079 52.805 281.691 53.492 C 283.294 53.721 284.669 53.836 285.7 54.065 C 286.731 54.294 287.99 54.637 289.479 55.096 C 290.968 55.554 292.114 56.126 293.03 56.928 C 293.946 57.615 294.634 58.646 295.321 59.792 C 296.008 61.051 296.237 62.426 296.237 64.144 C 296.237 67.466 294.748 69.985 291.999 71.818 C 289.25 73.65 285.814 74.567 281.691 74.567 C 274.819 74.567 269.665 72.391 266.229 68.038 L 269.55 64.029 C 272.414 67.58 276.537 69.413 281.92 69.413 C 284.211 69.413 286.272 68.954 287.99 68.153 C 289.709 67.351 290.625 65.977 290.739 64.029 C 290.739 62.311 290.052 61.051 288.334 60.25 C 286.616 59.448 284.44 58.875 281.347 58.532 C 279.4 58.303 277.682 57.959 276.308 57.615 C 274.933 57.272 273.444 56.699 272.07 56.012 C 270.581 55.325 269.55 54.294 268.748 53.149 C 267.947 51.889 267.603 50.4 267.603 48.567 C 267.603 46.276 268.29 44.215 269.779 42.726 C 271.268 41.122 272.986 39.977 275.048 39.404 C 277.11 38.717 279.286 38.488 281.691 38.488 C 287.074 38.488 291.427 39.977 294.863 43.069 L 291.427 46.62 L 291.427 46.62 Z " fill="rgb(39,44,53)"/><path d=" M 307.003 43.184 C 310.439 39.748 314.677 38.144 319.831 38.144 C 325.1 38.144 329.452 39.862 332.774 43.184 C 336.096 46.505 337.814 50.972 337.814 56.356 C 337.814 61.624 336.096 65.862 332.774 69.184 C 329.338 72.505 325.1 74.223 319.831 74.223 C 314.677 74.223 310.325 72.505 307.003 69.184 C 303.567 65.862 301.964 61.51 301.964 56.356 C 301.964 50.972 303.567 46.62 307.003 43.184 Z  M 328.765 46.964 C 326.475 44.558 323.497 43.298 319.946 43.298 C 316.395 43.298 313.417 44.444 311.127 46.849 C 308.836 49.254 307.691 52.347 307.691 56.126 C 307.691 59.792 308.836 62.77 311.127 65.06 C 313.417 67.351 316.395 68.611 319.946 68.611 C 323.497 68.611 326.475 67.466 328.765 65.06 C 331.056 62.77 332.316 59.677 332.316 56.126 C 332.201 52.461 331.056 49.369 328.765 46.964 Z " fill="rgb(39,44,53)"/><path d=" M 373.091 73.536 L 372.862 68.038 C 369.884 72.047 365.875 73.994 360.835 74.109 C 356.368 74.109 352.703 72.62 349.954 69.756 C 347.206 66.893 345.831 62.999 345.831 57.959 L 345.831 38.832 L 351.558 38.832 L 351.558 57.959 C 351.558 61.281 352.474 63.915 354.307 65.862 C 356.139 67.809 358.774 68.725 361.981 68.725 C 365.073 68.725 367.707 67.58 369.655 65.404 C 371.602 63.228 372.632 60.593 372.632 57.386 L 372.632 38.832 L 378.359 38.832 L 378.359 73.536 L 373.091 73.536 L 373.091 73.536 Z " fill="rgb(39,44,53)"/><path d=" M 394.28 38.832 L 394.738 43.986 C 396.8 40.206 400.35 38.259 405.39 38.259 C 408.482 38.144 411.117 39.061 413.407 40.893 L 410.773 45.818 C 408.94 44.558 406.993 43.871 404.703 43.871 C 401.839 43.871 399.434 44.902 397.487 46.735 C 395.54 48.682 394.509 51.087 394.509 54.179 L 394.509 73.421 L 388.782 73.421 L 388.782 38.832 L 394.28 38.832 L 394.28 38.832 Z " fill="rgb(39,44,53)"/><path d=" M 446.623 68.84 C 443.072 72.391 438.72 74.223 433.68 74.223 C 428.526 74.223 424.288 72.62 420.738 69.413 C 417.301 66.206 415.583 61.853 415.583 56.241 C 415.583 50.629 417.301 46.276 420.738 43.069 C 424.174 39.862 428.526 38.259 433.68 38.259 C 438.491 38.259 442.728 39.977 446.279 43.413 L 442.614 47.193 C 440.209 44.902 437.345 43.642 433.795 43.642 C 430.244 43.642 427.266 44.787 424.975 47.078 C 422.57 49.369 421.425 52.347 421.425 56.126 C 421.425 60.021 422.57 63.113 424.975 65.289 C 427.381 67.466 430.244 68.611 433.795 68.611 C 437.46 68.611 440.438 67.351 442.843 64.946 L 446.623 68.84 L 446.623 68.84 Z " fill="rgb(39,44,53)"/><path d=" M 484.19 68.038 C 482.472 70.1 480.296 71.589 477.547 72.62 C 474.798 73.65 472.05 74.223 469.186 74.223 C 463.803 74.223 459.336 72.62 456.015 69.298 C 452.693 65.977 450.975 61.624 450.975 56.126 C 450.975 50.858 452.693 46.62 456.015 43.184 C 459.336 39.748 463.689 38.144 468.957 38.144 C 474.569 38.144 479.036 39.862 482.358 43.413 C 485.679 46.964 486.939 51.889 486.367 58.532 L 456.931 58.532 C 457.275 61.624 458.534 64.144 460.94 66.091 C 463.23 68.038 466.094 68.954 469.53 68.954 C 471.592 68.954 473.653 68.611 475.715 67.809 C 477.776 67.007 479.38 65.977 480.525 64.602 L 484.19 68.038 L 484.19 68.038 Z  M 480.869 53.721 C 480.754 50.4 479.609 47.88 477.547 46.047 C 475.486 44.215 472.622 43.298 469.186 43.298 C 466.094 43.298 463.345 44.215 461.054 46.047 C 458.763 47.88 457.389 50.4 456.931 53.607 L 480.869 53.721 L 480.869 53.721 Z " fill="rgb(39,44,53)"/></g></g></g></g></svg>