<svg id="Layer_1" data-name="Layer 1" xmlns="http://www.w3.org/2000/svg" viewBox="0 0 1024 1024">
  <defs>
    <style>
      .cls-1 {
        fill: #080808;
      }

      .cls-2 {
        fill: #3ddc97;
      }

      .cls-3 {
        fill: #f12a1f;
      }

      .cls-4 {
        fill: #ffb400;
      }
    </style>
  </defs>
  <g>
    <path class="cls-1" d="M164,916.56V106.42H449.32c88.66,0,163.07,19.35,225.23,59.1,61.15,38.72,108,89.68,138.6,151.84S860,444.74,860,512c0,68.28-15.29,133.49-46.88,194.64-30.57,62.17-77.45,112.1-138.6,151.84-61.15,38.73-136.57,59.1-225.23,59.1H217C201.68,916.56,165,916.56,164,916.56Z"/>
    <path class="cls-2" d="M279.13,288.83H568.56c24.46,0,44.84,20.38,44.84,44.83S593,378.51,568.56,378.51H279.13Z"/>
    <path class="cls-3" d="M279.13,643.46H633.79c24.45,0,44.83,20.38,44.83,44.84s-20.38,44.84-44.83,44.84H279.13Z"/>
    <path class="cls-4" d="M279.13,466.15H479.9c24.45,0,44.83,20.37,44.83,44.83s-20.38,44.85-44.83,44.85H279.13Z"/>
  </g>
</svg>
