<svg id="Layer_1" data-name="Layer 1" xmlns="http://www.w3.org/2000/svg" viewBox="0 0 2400 380">
  <defs>
    <style>
      .cls-1, .cls-2 {
        fill: #fff;
      }

      .cls-1 {
        fill-rule: evenodd;
      }
    </style>
  </defs>
  <path class="cls-1" d="M196.64,104.14h106.3a16.35,16.35,0,1,1,0,32.69H196.64Zm0,129.24H326.89a16.34,16.34,0,1,1,0,32.67H196.64ZM154.35,332.9V37.67H259.14c32.57,0,59.89,7,82.72,21.54,22.45,14.12,39.67,32.68,50.9,55.33S410,161,410,185.47a151.66,151.66,0,0,1-17.21,70.93c-11.23,22.65-28.45,40.85-50.9,55.33-22.46,14.11-50.15,21.54-82.72,21.54H173.82C168.2,332.9,154.72,332.9,154.35,332.9Zm42.29-164.14h73.73a16.34,16.34,0,1,1,0,32.68H196.64Z"/>
  <path class="cls-2" d="M676.89,56.48V279.15H652.3l-1-28.55a65,65,0,0,1-25.1,23.88,76.63,76.63,0,0,1-34,8.3c-23.54,0-42.37-7.27-57.54-21.8s-22.48-34.25-22.48-59.69,7.32-45.67,22.48-59.68c15.17-14.53,34-21.28,57.54-21.28a73.75,73.75,0,0,1,34.53,8.3c11,5.72,19.35,13,24.58,23.35V56.48Zm-83.17,86.69c-16.23,0-29.3,5.18-39.77,15.05s-15.69,23.87-15.69,42c0,17.64,5.24,31.66,15.69,41.51,10.47,10.39,24.08,15,39.77,15,16.21,0,29.29-5.18,40.27-16.08,10.47-10.37,16.22-24.39,16.22-41.53,0-16.6-5.23-30.09-16.22-40.47C622.48,148.87,609.41,143.17,593.72,143.17Z"/>
  <path class="cls-2" d="M866.25,254.24c-7.85,9.33-17.79,16.08-30.34,20.75a108.41,108.41,0,0,1-38.19,7.27c-24.58,0-45-7.27-60.15-22.32s-23-34.77-23-59.68c0-23.87,7.85-43.08,23-58.65s35-22.83,59.11-22.83c25.62,0,46,7.78,61.2,23.87s20.92,38.41,18.3,68.51H741.75c1.57,14,7.33,25.43,18.3,34.25,10.47,8.83,23.54,13,39.25,13a77.67,77.67,0,0,0,28.24-5.2c9.41-3.63,16.74-8.3,22-14.52Zm-15.17-64.88c-.52-15.05-5.76-26.47-15.17-34.78s-22.5-12.45-38.19-12.45c-14.13,0-26.68,4.15-37.13,12.45s-16.75,19.73-18.84,34.26Z"/>
  <path class="cls-2" d="M1054,254.24c-7.85,9.33-17.79,16.08-30.35,20.75a108.31,108.31,0,0,1-38.18,7.27c-24.58,0-45-7.27-60.15-22.32s-23-34.77-23-59.68c0-23.87,7.85-43.08,23-58.65s35-22.83,59.1-22.83c25.64,0,46,7.78,61.21,23.87s20.91,38.41,18.31,68.51H929.54c1.57,14,7.33,25.43,18.31,34.25,10.46,8.83,23.54,13,39.23,13a77.69,77.69,0,0,0,28.25-5.2c9.41-3.63,16.73-8.3,22-14.52Zm-15.17-64.88c-.53-15.05-5.75-26.47-15.18-34.78s-22.49-12.45-38.18-12.45c-14.12,0-26.67,4.15-37.14,12.45s-16.73,19.73-18.83,34.26Z"/>
  <path class="cls-2" d="M1100.07,122.93h25.11l1,30.09a64.22,64.22,0,0,1,25.62-24.39,74.8,74.8,0,0,1,35.05-8.82c23,.52,41.85,8.3,56.5,22.84,14.64,15,22,34.26,22,58.13,0,24.39-7.32,44.11-22.48,59.16s-34,22.32-58.06,22.32a80,80,0,0,1-34.53-7.78,55.73,55.73,0,0,1-25.11-23.88V352.84h-25.63V122.93Zm124,119.89c10.46-10.38,15.7-23.87,15.7-41.53,0-17.12-5.24-31.13-15.7-41s-23.53-15.06-40.28-15.06-29.81,5.2-40.27,16.1c-10.47,10.38-15.18,23.88-15.18,40.48,0,16.09,5.23,29.59,15.7,40,10.46,10.9,23.54,16.1,39.75,16.62C1200.51,258.39,1213.58,253.19,1224,242.82Z"/>
  <path class="cls-2" d="M1406.08,157.18c-11.51-10.38-26.16-15.05-44.47-15.05-11.51,0-20.92,1.55-28.24,5.7s-11,9.87-11,17.14c0,12.45,13.61,20.24,39.23,23.35,7.33,1,13.61,1.56,18.31,2.59s10.48,2.6,17.26,4.68,12,4.67,16.21,8.3c4.19,3.11,7.33,7.79,10.48,13,3.13,5.71,4.17,11.94,4.17,19.73,0,15-6.8,26.47-19.35,34.77s-28.24,12.45-47.08,12.45q-47.07,0-70.61-29.57l15.17-18.17c13.07,16.09,31.91,24.39,56.49,24.39a66.19,66.19,0,0,0,27.74-5.7q11.74-5.46,12.54-18.69c0-7.79-3.13-13.5-11-17.12s-17.8-6.24-31.91-7.79a187.11,187.11,0,0,1-23-4.16,97.48,97.48,0,0,1-19.35-7.26,37.24,37.24,0,0,1-15.17-13c-3.67-5.7-5.23-12.45-5.23-20.76,0-10.38,3.13-19.72,9.94-26.47,6.8-7.27,14.65-12.45,24.06-15,9.41-3.12,19.35-4.15,30.33-4.15,24.59,0,44.47,6.75,60.17,20.75Z"/>
  <path class="cls-2" d="M1477.22,141.61c15.69-15.58,35-22.83,58.59-22.83,24,0,43.94,7.78,59.1,22.83s23,35.3,23,59.68c0,23.88-7.85,43.08-23,58.13-15.69,15.06-35.05,22.84-59.1,22.84-23.54,0-43.41-7.78-58.59-22.84-15.69-15.05-23-34.77-23-58.13C1454.2,176.91,1461.53,157.18,1477.22,141.61Zm99.38,17.13c-10.45-10.91-24.06-16.61-40.27-16.61s-29.82,5.19-40.27,16.09-15.7,24.91-15.7,42q0,24.9,15.7,40.48c10.45,10.38,24.06,16.08,40.27,16.08s29.82-5.18,40.27-16.08c10.47-10.37,16.23-24.39,16.23-40.48C1592.3,183.64,1587.07,169.64,1576.6,158.74Z"/>
  <path class="cls-2" d="M1779,279.15l-1-24.91c-13.6,18.15-31.91,27-54.93,27.5-20.4,0-37.15-6.75-49.7-19.72s-18.83-30.62-18.83-53.46V121.88h26.16v86.68q0,22.59,12.55,35.81c8.38,8.82,20.41,13,35,13,14.14,0,26.16-5.19,35.06-15.05S1777,220.5,1777,206V121.88h26.16V279.15Z"/>
  <path class="cls-2" d="M1875.81,121.88l2.1,23.35c9.41-17.12,25.63-25.94,48.64-25.94a53.8,53.8,0,0,1,36.63,11.94l-12,22.32a47.48,47.48,0,0,0-27.72-8.83,46.9,46.9,0,0,0-33,13c-8.88,8.82-13.59,19.72-13.59,33.73v87.2h-26.16V121.88Z"/>
  <path class="cls-2" d="M2114.87,257.87c-16.21,16.09-36.1,24.39-59.1,24.39-23.55,0-42.9-7.27-59.12-21.8-15.7-14.52-23.55-34.26-23.55-59.68s7.85-45.16,23.55-59.7,35.57-21.79,59.12-21.79c22,0,41.31,7.79,57.53,23.36l-16.74,17.12c-11-10.37-24.06-16.09-40.28-16.09s-29.81,5.19-40.28,15.57c-11,10.39-16.21,23.88-16.21,41,0,17.64,5.24,31.66,16.21,41.51s24.07,15,40.28,15c16.74,0,30.35-5.7,41.32-16.6Z"/>
  <path class="cls-2" d="M2286.44,254.24c-7.84,9.33-17.78,16.08-30.33,20.75a108.42,108.42,0,0,1-38.2,7.27c-24.58,0-45-7.27-60.14-22.32s-23-34.77-23-59.68c0-23.87,7.85-43.08,23-58.65s35.05-22.83,59.1-22.83c25.64,0,46,7.78,61.21,23.87s20.92,38.41,18.3,68.51H2162c1.57,14,7.32,25.43,18.31,34.25,10.45,8.83,23.54,13,39.23,13a77.64,77.64,0,0,0,28.24-5.2c9.41-3.63,16.74-8.3,22-14.52Zm-15.17-64.88c-.51-15.05-5.74-26.47-15.16-34.78s-22.5-12.45-38.2-12.45c-14.11,0-26.67,4.15-37.13,12.45S2164,174.31,2162,188.84Z"/>
</svg>
